Coordinates
version=1
nRows=14
nColumns=46
inDegrees=yes

Units are S.I. units (second, meters, Newtons, ...)
Angles are in degrees.

endheader
time	pelvis_tilt	pelvis_list	pelvis_rotation	pelvis_tx	pelvis_ty	pelvis_tz	bb_angle	bb_tx	bb_ty	bb_tz	hip_flexion_r	hip_adduction_r	hip_rotation_r	knee_angle_r	knee_angle_r_beta	ankle_angle_r	subtalar_angle_r	mtp_angle_r	crank_angle_r	hip_flexion_l	hip_adduction_l	hip_rotation_l	knee_angle_l	knee_angle_l_beta	ankle_angle_l	subtalar_angle_l	mtp_angle_l	crank_angle_l	lumbar_extension	lumbar_bending	lumbar_rotation	arm_flex_r	arm_add_r	arm_rot_r	elbow_flex_r	pro_sup_r	wrist_flex_r	wrist_dev_r	arm_flex_l	arm_add_l	arm_rot_l	elbow_flex_l	pro_sup_l	wrist_flex_l	wrist_dev_l
      2.50000000	    -26.80909108	      8.58800391	     -3.06958504	      0.28836547	      1.06094332	     -0.24570353	      0.00000000	      0.50000000	      0.00000000	      0.25000000	     48.49223023	    -13.47548663	     -2.61462767	     29.83039970	      0.52063869	    -16.14990229	      4.77020303	      0.00000000	      0.00000000	     74.55261777	     -1.51114138	     -6.44262368	    109.39395914	      1.90928477	     -9.09016435	    -10.88117306	      0.00000000	      0.00000000	    -50.86653115	     -5.23540200	     -6.19587165	     58.39625630	    -15.28591809	     20.42948803	     84.85916642	     51.83866023	      0.00000000	      0.00000000	     53.55117767	    -17.83687150	     12.33351827	     84.69359988	     51.50370174	      0.00000000	      0.00000000
      2.50500000	    -26.71787125	      9.15271443	     -2.63334672	      0.28936265	      1.05949581	     -0.24521413	      0.00000000	      0.50000000	      0.00000000	      0.25000000	     47.64931773	    -14.28448653	     -2.74642488	     29.20279959	      0.50968500	    -16.93548641	      5.01100714	      0.00000000	      0.00000000	     75.49831007	     -1.44541325	     -6.80752995	    110.64158206	      1.93105990	     -7.50593679	     -9.74117124	      0.00000000	      0.00000000	    -50.72347545	     -5.74343482	     -6.45384996	     57.64515026	    -15.61702141	     19.65226105	     84.91516734	     51.78488756	      0.00000000	      0.00000000	     54.29129341	    -17.82912145	     13.90918658	     83.75245577	     51.49201881	      0.00000000	      0.00000000
      2.51000000	    -26.76962415	      9.57764400	     -2.29083159	      0.29041502	      1.05783865	     -0.24483938	      0.00000000	      0.50000000	      0.00000000	      0.25000000	     46.93885555	    -14.92033403	     -2.97775542	     28.59417402	      0.49906248	    -17.71685593	      5.22897034	      0.00000000	      0.00000000	     76.62466424	     -1.55011104	     -7.10730932	    111.88844176	      1.95282170	     -6.23854015	     -8.95743458	      0.00000000	      0.00000000	    -50.41488551	     -6.22358112	     -6.43669562	     56.78439104	    -16.19769232	     18.98990656	     85.22105020	     51.79442237	      0.00000000	      0.00000000	     55.01387111	    -17.66216100	     15.32228525	     82.77448910	     51.45925689	      0.00000000	      0.00000000
      2.51500000	    -26.87988767	     10.18340606	     -1.74024889	      0.29144161	      1.05693455	     -0.24468787	      0.00000000	      0.50000000	      0.00000000	      0.25000000	     46.14954445	    -15.82444870	     -3.13929213	     27.77728287	      0.48480504	    -18.60525258	      5.49159334	      0.00000000	      0.00000000	     77.71398971	     -1.33345531	     -7.60434602	    112.78202243	      1.96841763	     -5.42331199	     -8.65945875	      0.00000000	      0.00000000	    -50.19978919	     -6.59665592	     -7.00547934	     56.18945936	    -16.44699049	     18.91770998	     85.09996714	     51.76827711	      0.00000000	      0.00000000	     55.09934442	    -17.61533497	     15.57971253	     82.64109829	     51.45058307	      0.00000000	      0.00000000
      2.52000000	    -26.87881392	     10.60390342	     -1.28748027	      0.29215567	      1.05619126	     -0.24417878	      0.00000000	      0.50000000	      0.00000000	      0.25000000	     45.26181473	    -16.47918658	     -3.37587533	     27.14010243	      0.47368415	    -19.18876824	      5.55461904	      0.00000000	      0.00000000	     78.74183342	     -1.33455280	     -7.94668226	    113.69708614	      1.98438850	     -4.49947722	     -8.39684514	      0.00000000	      0.00000000	    -50.05683638	     -7.02927431	     -7.59753025	     55.82783229	    -16.65060864	     18.80916637	     84.99876485	     51.73769847	      0.00000000	      0.00000000	     55.26641064	    -17.58395066	     15.85872741	     82.53390088	     51.44786769	      0.00000000	      0.00000000
      2.52500000	    -26.90265481	     10.99072890	     -0.91563546	      0.29286979	      1.05598588	     -0.24355594	      0.00000000	      0.50000000	      0.00000000	      0.25000000	     44.24637539	    -16.98917910	     -3.48336827	     26.14780819	      0.45636535	    -20.24211817	      5.39108701	      0.00000000	      0.00000000	     79.65415708	     -1.41133337	     -8.19293034	    114.40702463	      1.99677927	     -3.07369729	     -6.89681496	      0.00000000	      0.00000000	    -49.98928630	     -7.44060312	     -7.74917070	     55.24428671	    -16.97363601	     18.31726913	     84.89733173	     51.69587414	      0.00000000	      0.00000000	     56.08378672	    -17.91861904	     17.58162270	     81.71291866	     51.47510639	      0.00000000	      0.00000000
      2.53000000	    -27.14644839	     11.43414225	     -0.29444178	      0.29351157	      1.05587731	     -0.24338145	      0.00000000	      0.50000000	      0.00000000	      0.25000000	     43.47840079	    -17.74562274	     -3.84486624	     25.29021915	      0.44139759	    -21.17629866	      5.58867996	      0.00000000	      0.00000000	     80.78713607	     -1.18096346	     -8.61079035	    114.84338004	      2.00439511	     -2.63943484	     -6.84781862	      0.00000000	      0.00000000	    -49.76277323	     -7.73143649	     -8.37456531	     54.84790241	    -17.18876814	     18.25272096	     84.78065177	     51.67568542	      0.00000000	      0.00000000	     56.22104515	    -17.86773061	     17.85402876	     81.61872480	     51.47974188	      0.00000000	      0.00000000
      2.53500000	    -27.14627677	     11.74120096	      0.31634127	      0.29413205	      1.05683354	     -0.24286654	      0.00000000	      0.50000000	      0.00000000	      0.25000000	     42.31232601	    -18.33764290	     -4.33994029	     24.24367956	      0.42313203	    -22.46550453	      5.36935525	      0.00000000	      0.00000000	     81.57148275	     -0.96541463	     -8.87440209	    115.06432124	      2.00825126	     -2.00667017	     -6.50980143	      0.00000000	      0.00000000	    -49.87785927	     -7.93452196	     -8.84884620	     54.57911604	    -17.34681207	     17.97523100	     84.56761792	     51.65023363	      0.00000000	      0.00000000	     56.87783382	    -18.15947756	     19.09451518	     81.04540004	     51.50840078	      0.00000000	      0.00000000
      2.54000000	    -27.48997199	     12.08682126	      0.82722616	      0.29437031	      1.05765508	     -0.24277931	      0.00000000	      0.50000000	      0.00000000	      0.25000000	     41.62236239	    -18.88511683	     -4.61530678	     23.25292212	      0.40584005	    -23.70473586	      5.43023250	      0.00000000	      0.00000000	     82.67583145	     -0.74466043	     -9.25258678	    115.10833798	      2.00901949	     -1.51879217	     -6.54800009	      0.00000000	      0.00000000	    -49.70621464	     -8.16478894	     -9.38550644	     54.45745242	    -17.54229093	     17.91939378	     84.38802909	     51.62502857	      0.00000000	      0.00000000	     57.03371836	    -18.14188316	     19.31345785	     81.03185887	     51.52616654	      0.00000000	      0.00000000
      2.54500000	    -27.64172027	     12.32269247	      1.47167899	      0.29469972	      1.05953337	     -0.24267010	      0.00000000	      0.50000000	      0.00000000	      0.25000000	     40.60144656	    -19.44529005	     -5.29079867	     22.11732769	      0.38602019	    -25.47808155	      5.19983208	      0.00000000	      0.00000000	     83.46858485	     -0.36666589	     -9.51291289	    114.87703610	      2.00498251	     -1.24850833	     -6.64076463	      0.00000000	      0.00000000	    -49.79536072	     -8.22093252	    -10.04500974	     54.44380759	    -17.61054962	     17.89690416	     83.97454462	     51.57093079	      0.00000000	      0.00000000	     57.28318436	    -18.17903193	     19.72570428	     80.92560901	     51.54682041	      0.00000000	      0.00000000
      2.55000000	    -28.06331657	     12.59072291	      2.14965359	      0.29464316	      1.06146219	     -0.24309528	      0.00000000	      0.50000000	      0.00000000	      0.25000000	     39.89958629	    -20.01780823	     -5.72773370	     21.01038547	      0.36670040	    -27.06864867	      5.14441210	      0.00000000	      0.00000000	     84.44334319	      0.16629069	     -9.83249995	    114.44994041	      1.99752829	     -0.64873561	     -6.78783450	      0.00000000	      0.00000000	    -49.73216624	     -8.23121837	    -10.71970588	     54.72368921	    -17.70494985	     17.81641932	     83.74410756	     51.52845875	      0.00000000	      0.00000000	     57.59869104	    -18.08338520	     19.91786307	     80.94404643	     51.56375234	      0.00000000	      0.00000000
      2.55500000	    -28.19420658	     12.62074144	      2.88929681	      0.29500841	      1.06476114	     -0.24351256	      0.00000000	      0.50000000	      0.00000000	      0.25000000	     38.66606315	    -20.42161620	     -6.68537751	     19.56714349	      0.34151108	    -29.51884554	      4.69530939	      0.00000000	      0.00000000	     84.93209293	      0.81572107	     -9.91874133	    113.78558326	      1.98593307	     -0.04641332	     -7.03773007	      0.00000000	      0.00000000	    -50.00288388	     -7.96696044	    -11.47104189	     54.92801907	    -17.62440000	     17.93860889	     83.10200879	     51.44886430	      0.00000000	      0.00000000	     57.87538075	    -18.12852015	     20.14530175	     80.85019585	     51.56573963	      0.00000000	      0.00000000
      2.56000000	    -28.40319359	     12.54286389	      3.56170438	      0.29513304	      1.06829783	     -0.24430692	      0.00000000	      0.50000000	      0.00000000	      0.25000000	     37.53580007	    -20.66261678	     -7.52219445	     18.10257089	      0.31594947	    -31.97425013	      4.28915232	      0.00000000	      0.00000000	     85.39178038	      1.50123523	     -9.91898985	    113.03282474	      1.97279495	      1.04023742	     -7.30294184	      0.00000000	      0.00000000	    -50.23766312	     -7.58071353	    -12.15234796	     55.45320791	    -17.53277822	     18.20308957	     82.37437231	     51.36854144	      0.00000000	      0.00000000	     58.21656910	    -18.13874726	     20.18428200	     80.84525340	     51.56082130	      0.00000000	      0.00000000
      2.56500000	    -28.56766120	     12.42724538	      4.29065359	      0.29516698	      1.07246436	     -0.24535211	      0.00000000	      0.50000000	      0.00000000	      0.25000000	     36.40870081	    -20.92582209	     -8.54665645	     16.68871599	      0.29127304	    -34.67468180	      3.94009916	      0.00000000	      0.00000000	     85.65816163	      2.34539984	     -9.85688931	    112.09877850	      1.95649277	      2.17759083	     -7.49986972	      0.00000000	      0.00000000	    -50.48089516	     -6.97608084	    -13.46418858	     57.12597392	    -16.78493018	     19.86283087	     79.87271030	     51.20238442	      0.00000000	      0.00000000	     58.14080868	    -18.77983784	     19.53924346	     81.19981356	     51.54177374	      0.00000000	      0.00000000
